<svg width="348" height="48" viewBox="0 0 348 48" fill="none" xmlns="http://www.w3.org/2000/svg">
<path d="M18.664 3.91999L30.328 33.968C30.776 35.12 31.272 35.92 31.816 36.368C32.392 36.784 32.904 37.008 33.352 37.04V38C32.392 37.936 31.256 37.904 29.944 37.904C28.664 37.872 27.368 37.856 26.056 37.856C24.584 37.856 23.192 37.872 21.88 37.904C20.568 37.904 19.528 37.936 18.76 38V37.04C20.392 36.976 21.416 36.704 21.832 36.224C22.28 35.712 22.184 34.64 21.544 33.008L13.384 10.688L14.248 9.43999L6.952 28.448C6.248 30.208 5.816 31.648 5.656 32.768C5.528 33.888 5.608 34.752 5.896 35.36C6.216 35.968 6.712 36.4 7.384 36.656C8.088 36.88 8.92 37.008 9.88 37.04V38C8.824 37.936 7.816 37.904 6.856 37.904C5.896 37.872 4.92 37.856 3.928 37.856C3.224 37.856 2.552 37.872 1.912 37.904C1.304 37.904 0.759999 37.936 0.279999 38V37.04C0.951999 36.912 1.64 36.48 2.344 35.744C3.048 35.008 3.736 33.76 4.408 32L15.352 3.91999C15.864 3.95199 16.408 3.96799 16.984 3.96799C17.592 3.96799 18.152 3.95199 18.664 3.91999ZM22.024 24.176V25.136H7.72L8.2 24.176H22.024Z" fill="#141414"/>
<path d="M50.6796 12.512C51.7036 12.512 52.5356 12.736 53.1756 13.184C53.8156 13.6 54.2796 14.144 54.5676 14.816C54.8876 15.488 55.0476 16.192 55.0476 16.928C55.0476 18.112 54.6956 19.088 53.9916 19.856C53.3196 20.592 52.4236 20.96 51.3036 20.96C50.1836 20.96 49.3036 20.688 48.6636 20.144C48.0556 19.568 47.7516 18.816 47.7516 17.888C47.7516 16.992 47.9436 16.256 48.3276 15.68C48.7436 15.072 49.2556 14.56 49.8636 14.144C49.4156 14.016 48.9676 14.032 48.5196 14.192C47.9116 14.288 47.3356 14.544 46.7916 14.96C46.2476 15.344 45.7836 15.84 45.3996 16.448C45.0156 17.024 44.7116 17.664 44.4876 18.368C44.2636 19.04 44.1516 19.696 44.1516 20.336V33.056C44.1516 34.592 44.5196 35.632 45.2556 36.176C46.0236 36.72 47.1596 36.992 48.6636 36.992V38C47.9276 37.968 46.8556 37.936 45.4476 37.904C44.0396 37.84 42.5676 37.808 41.0316 37.808C39.7516 37.808 38.4556 37.84 37.1436 37.904C35.8316 37.936 34.8396 37.968 34.1676 38V36.992C35.2876 36.992 36.0716 36.752 36.5196 36.272C36.9996 35.792 37.2396 34.88 37.2396 33.536V18.416C37.2396 16.976 37.0156 15.92 36.5676 15.248C36.1516 14.544 35.3516 14.192 34.1676 14.192V13.184C35.1916 13.28 36.1836 13.328 37.1436 13.328C38.4876 13.328 39.7356 13.28 40.8876 13.184C42.0716 13.056 43.1596 12.88 44.1516 12.656V17.12C44.5356 16.256 45.0476 15.472 45.6876 14.768C46.3276 14.064 47.0636 13.52 47.8956 13.136C48.7276 12.72 49.6556 12.512 50.6796 12.512Z" fill="#141414"/>
<path d="M62.8139 0.799986C64.1579 0.799986 65.2139 1.13599 65.9819 1.80799C66.7819 2.44799 67.1819 3.34399 67.1819 4.49599C67.1819 5.64799 66.7819 6.55999 65.9819 7.23199C65.2139 7.87199 64.1579 8.19199 62.8139 8.19199C61.4699 8.19199 60.3979 7.87199 59.5979 7.23199C58.8299 6.55999 58.4459 5.64799 58.4459 4.49599C58.4459 3.34399 58.8299 2.44799 59.5979 1.80799C60.3979 1.13599 61.4699 0.799986 62.8139 0.799986ZM66.5579 12.656V33.536C66.5579 34.88 66.7819 35.792 67.2299 36.272C67.7099 36.752 68.5099 36.992 69.6299 36.992V38C69.0539 37.968 68.1579 37.936 66.9419 37.904C65.7259 37.84 64.4939 37.808 63.2459 37.808C61.9979 37.808 60.7339 37.84 59.4539 37.904C58.1739 37.936 57.2139 37.968 56.5739 38V36.992C57.6939 36.992 58.4779 36.752 58.9259 36.272C59.4059 35.792 59.6459 34.88 59.6459 33.536V18.416C59.6459 16.976 59.4219 15.92 58.9739 15.248C58.5579 14.544 57.7579 14.192 56.5739 14.192V13.184C57.5979 13.28 58.5899 13.328 59.5499 13.328C60.8939 13.328 62.1419 13.28 63.2939 13.184C64.4779 13.056 65.5659 12.88 66.5579 12.656Z" fill="#141414"/>
<path d="M84.0985 12.512C86.9145 12.512 89.1225 13.344 90.7225 15.008C92.3225 16.672 93.1225 19.392 93.1225 23.168H77.3305L77.2345 22.256H87.0745C87.1065 20.688 87.0105 19.248 86.7865 17.936C86.5625 16.592 86.2105 15.52 85.7305 14.72C85.2505 13.92 84.6105 13.52 83.8105 13.52C82.6905 13.52 81.7305 14.224 80.9305 15.632C80.1625 17.04 79.6985 19.376 79.5385 22.64L79.6825 22.928C79.6505 23.312 79.6185 23.712 79.5865 24.128C79.5865 24.544 79.5865 24.976 79.5865 25.424C79.5865 27.632 79.8905 29.424 80.4985 30.8C81.1385 32.176 81.9385 33.184 82.8985 33.824C83.8585 34.432 84.8345 34.736 85.8265 34.736C86.4985 34.736 87.1865 34.64 87.8905 34.448C88.6265 34.224 89.3625 33.84 90.0985 33.296C90.8345 32.72 91.5225 31.92 92.1625 30.896L93.0265 31.184C92.6425 32.4 92.0345 33.584 91.2025 34.736C90.3705 35.888 89.3145 36.832 88.0345 37.568C86.7545 38.304 85.2185 38.672 83.4265 38.672C81.2505 38.672 79.3305 38.208 77.6665 37.28C76.0025 36.352 74.6905 34.944 73.7305 33.056C72.8025 31.168 72.3385 28.768 72.3385 25.856C72.3385 22.88 72.8345 20.4 73.8265 18.416C74.8505 16.432 76.2425 14.96 78.0025 14C79.7945 13.008 81.8265 12.512 84.0985 12.512Z" fill="#141414"/>
<path d="M105.694 0.415985V33.536C105.694 34.88 105.918 35.792 106.366 36.272C106.846 36.752 107.646 36.992 108.766 36.992V38C108.158 37.968 107.246 37.936 106.03 37.904C104.814 37.84 103.582 37.808 102.334 37.808C101.086 37.808 99.822 37.84 98.542 37.904C97.294 37.936 96.35 37.968 95.71 38V36.992C96.83 36.992 97.614 36.752 98.062 36.272C98.542 35.792 98.782 34.88 98.782 33.536V6.17599C98.782 4.73599 98.558 3.67999 98.11 3.00799C97.694 2.30399 96.894 1.95199 95.71 1.95199V0.943987C96.734 1.03999 97.726 1.08799 98.686 1.08799C99.998 1.08799 101.246 1.03999 102.43 0.943987C103.614 0.815987 104.702 0.639986 105.694 0.415985Z" fill="#141414"/>
<path d="M122.491 4.01599C123.291 4.04799 124.363 4.07999 125.707 4.11199C127.083 4.14399 128.443 4.15999 129.787 4.15999C131.323 4.15999 132.811 4.14399 134.251 4.11199C135.691 4.07999 136.715 4.06399 137.323 4.06399C140.299 4.06399 142.763 4.39999 144.715 5.07199C146.699 5.71199 148.171 6.65599 149.131 7.90399C150.123 9.15199 150.619 10.656 150.619 12.416C150.619 13.504 150.395 14.608 149.947 15.728C149.499 16.816 148.731 17.84 147.643 18.8C146.587 19.728 145.131 20.48 143.275 21.056C141.419 21.6 139.083 21.872 136.267 21.872H131.659V20.912H135.787C137.675 20.912 139.099 20.56 140.059 19.856C141.051 19.12 141.723 18.16 142.075 16.976C142.459 15.76 142.651 14.416 142.651 12.944C142.651 10.416 142.203 8.46399 141.307 7.08799C140.411 5.67999 138.875 4.97599 136.699 4.97599C135.451 4.97599 134.635 5.24799 134.251 5.79199C133.899 6.33599 133.723 7.43999 133.723 9.10398V32.912C133.723 34.064 133.803 34.928 133.963 35.504C134.155 36.08 134.507 36.464 135.019 36.656C135.531 36.848 136.299 36.976 137.323 37.04V38C136.459 37.936 135.371 37.904 134.059 37.904C132.747 37.872 131.419 37.856 130.075 37.856C128.539 37.856 127.083 37.872 125.707 37.904C124.363 37.904 123.291 37.936 122.491 38V37.04C123.515 36.976 124.283 36.848 124.795 36.656C125.307 36.464 125.643 36.08 125.803 35.504C125.995 34.928 126.091 34.064 126.091 32.912V9.10398C126.091 7.91998 125.995 7.05599 125.803 6.51199C125.643 5.93599 125.291 5.55199 124.747 5.35999C124.235 5.13599 123.483 5.00799 122.491 4.97599V4.01599ZM131.563 21.056C132.939 21.088 134.123 21.152 135.115 21.248C136.139 21.344 137.035 21.44 137.803 21.536C138.571 21.6 139.259 21.648 139.867 21.68C142.779 21.936 144.923 22.56 146.299 23.552C147.707 24.544 148.619 26.032 149.035 28.016L150.139 32.96C150.427 34.24 150.731 35.136 151.051 35.648C151.371 36.16 151.835 36.416 152.443 36.416C152.859 36.384 153.195 36.288 153.451 36.128C153.739 35.936 154.043 35.664 154.363 35.312L155.035 35.888C154.171 36.88 153.243 37.584 152.251 38C151.259 38.448 150.059 38.672 148.651 38.672C146.923 38.672 145.499 38.304 144.379 37.568C143.259 36.832 142.523 35.472 142.171 33.488L141.307 28.688C141.083 27.344 140.811 26.176 140.491 25.184C140.171 24.16 139.723 23.36 139.147 22.784C138.603 22.176 137.835 21.872 136.843 21.872H131.659L131.563 21.056Z" fill="#141414"/>
<path d="M167.63 12.512C169.966 12.512 172.014 12.944 173.774 13.808C175.534 14.672 176.91 16.064 177.902 17.984C178.894 19.904 179.39 22.448 179.39 25.616C179.39 28.784 178.894 31.328 177.902 33.248C176.91 35.136 175.534 36.512 173.774 37.376C172.014 38.24 169.966 38.672 167.63 38.672C165.358 38.672 163.326 38.24 161.534 37.376C159.774 36.512 158.382 35.136 157.358 33.248C156.366 31.328 155.87 28.784 155.87 25.616C155.87 22.448 156.366 19.904 157.358 17.984C158.382 16.064 159.774 14.672 161.534 13.808C163.326 12.944 165.358 12.512 167.63 12.512ZM167.63 13.472C166.35 13.472 165.278 14.432 164.414 16.352C163.55 18.24 163.118 21.328 163.118 25.616C163.118 29.904 163.55 32.992 164.414 34.88C165.278 36.768 166.35 37.712 167.63 37.712C168.942 37.712 170.014 36.768 170.846 34.88C171.71 32.992 172.142 29.904 172.142 25.616C172.142 21.328 171.71 18.24 170.846 16.352C170.014 14.432 168.942 13.472 167.63 13.472Z" fill="#141414"/>
<path d="M206.002 0.415985V32.72C206.002 34.16 206.226 35.232 206.674 35.936C207.122 36.608 207.922 36.944 209.074 36.944V37.952C208.082 37.856 207.09 37.808 206.098 37.808C204.754 37.808 203.49 37.856 202.306 37.952C201.154 38.048 200.082 38.224 199.09 38.48V6.17599C199.09 4.73599 198.866 3.67999 198.418 3.00799C198.002 2.30399 197.202 1.95199 196.018 1.95199V0.943987C197.042 1.03999 198.034 1.08799 198.994 1.08799C200.306 1.08799 201.554 1.03999 202.738 0.943987C203.922 0.815987 205.01 0.639986 206.002 0.415985ZM193.762 12.512C195.17 12.512 196.402 12.752 197.458 13.232C198.546 13.68 199.394 14.448 200.002 15.536L199.426 16.064C199.01 15.296 198.45 14.752 197.746 14.432C197.074 14.08 196.354 13.904 195.586 13.904C193.954 13.904 192.658 14.864 191.698 16.784C190.738 18.672 190.274 21.6 190.306 25.568C190.306 28.288 190.482 30.464 190.834 32.096C191.218 33.696 191.746 34.848 192.418 35.552C193.122 36.256 193.922 36.608 194.818 36.608C195.906 36.608 196.882 36.176 197.746 35.312C198.61 34.448 199.074 33.28 199.138 31.808L199.378 33.488C198.898 35.184 198.114 36.48 197.026 37.376C195.97 38.24 194.578 38.672 192.85 38.672C190.962 38.672 189.266 38.208 187.762 37.28C186.29 36.352 185.138 34.928 184.306 33.008C183.474 31.056 183.058 28.544 183.058 25.472C183.058 22.56 183.522 20.16 184.45 18.272C185.378 16.352 186.642 14.912 188.242 13.952C189.874 12.992 191.714 12.512 193.762 12.512Z" fill="#141414"/>
<path d="M227.586 12.512C228.61 12.512 229.442 12.736 230.082 13.184C230.722 13.6 231.186 14.144 231.474 14.816C231.794 15.488 231.954 16.192 231.954 16.928C231.954 18.112 231.602 19.088 230.898 19.856C230.226 20.592 229.33 20.96 228.21 20.96C227.09 20.96 226.21 20.688 225.57 20.144C224.962 19.568 224.658 18.816 224.658 17.888C224.658 16.992 224.85 16.256 225.234 15.68C225.65 15.072 226.162 14.56 226.77 14.144C226.322 14.016 225.874 14.032 225.426 14.192C224.818 14.288 224.242 14.544 223.698 14.96C223.154 15.344 222.69 15.84 222.306 16.448C221.922 17.024 221.618 17.664 221.394 18.368C221.17 19.04 221.058 19.696 221.058 20.336V33.056C221.058 34.592 221.426 35.632 222.162 36.176C222.93 36.72 224.066 36.992 225.57 36.992V38C224.834 37.968 223.762 37.936 222.354 37.904C220.946 37.84 219.474 37.808 217.938 37.808C216.658 37.808 215.362 37.84 214.05 37.904C212.738 37.936 211.746 37.968 211.074 38V36.992C212.194 36.992 212.978 36.752 213.426 36.272C213.906 35.792 214.146 34.88 214.146 33.536V18.416C214.146 16.976 213.922 15.92 213.474 15.248C213.058 14.544 212.258 14.192 211.074 14.192V13.184C212.098 13.28 213.09 13.328 214.05 13.328C215.394 13.328 216.642 13.28 217.794 13.184C218.978 13.056 220.066 12.88 221.058 12.656V17.12C221.442 16.256 221.954 15.472 222.594 14.768C223.234 14.064 223.97 13.52 224.802 13.136C225.634 12.72 226.562 12.512 227.586 12.512Z" fill="#141414"/>
<path d="M239.72 0.799986C241.064 0.799986 242.12 1.13599 242.888 1.80799C243.688 2.44799 244.088 3.34399 244.088 4.49599C244.088 5.64799 243.688 6.55999 242.888 7.23199C242.12 7.87199 241.064 8.19199 239.72 8.19199C238.376 8.19199 237.304 7.87199 236.504 7.23199C235.736 6.55999 235.352 5.64799 235.352 4.49599C235.352 3.34399 235.736 2.44799 236.504 1.80799C237.304 1.13599 238.376 0.799986 239.72 0.799986ZM243.464 12.656V33.536C243.464 34.88 243.688 35.792 244.136 36.272C244.616 36.752 245.416 36.992 246.536 36.992V38C245.96 37.968 245.064 37.936 243.848 37.904C242.632 37.84 241.4 37.808 240.152 37.808C238.904 37.808 237.64 37.84 236.36 37.904C235.08 37.936 234.12 37.968 233.48 38V36.992C234.6 36.992 235.384 36.752 235.832 36.272C236.312 35.792 236.552 34.88 236.552 33.536V18.416C236.552 16.976 236.328 15.92 235.88 15.248C235.464 14.544 234.664 14.192 233.48 14.192V13.184C234.504 13.28 235.496 13.328 236.456 13.328C237.8 13.328 239.048 13.28 240.2 13.184C241.384 13.056 242.472 12.88 243.464 12.656Z" fill="#141414"/>
<path d="M257.933 47.024C255.949 47.024 254.173 46.848 252.605 46.496C251.069 46.176 249.853 45.664 248.957 44.96C248.093 44.288 247.661 43.456 247.661 42.464C247.661 41.472 248.109 40.576 249.005 39.776C249.901 39.008 251.229 38.4 252.989 37.952L253.421 38.72C252.813 39.2 252.365 39.712 252.077 40.256C251.821 40.832 251.693 41.424 251.693 42.032C251.693 43.376 252.301 44.4 253.517 45.104C254.765 45.84 256.445 46.208 258.557 46.208C259.997 46.208 261.277 46.016 262.397 45.632C263.549 45.248 264.445 44.672 265.085 43.904C265.757 43.136 266.093 42.192 266.093 41.072C266.093 40.112 265.741 39.296 265.037 38.624C264.333 37.984 262.925 37.664 260.813 37.664H257.837C256.525 37.664 255.373 37.52 254.381 37.232C253.421 36.944 252.669 36.496 252.125 35.888C251.581 35.248 251.309 34.448 251.309 33.488C251.309 32.144 251.837 30.96 252.893 29.936C253.949 28.912 255.517 27.952 257.597 27.056L258.077 27.44C257.469 27.824 256.893 28.24 256.349 28.688C255.837 29.104 255.581 29.648 255.581 30.32C255.581 31.344 256.221 31.856 257.501 31.856H262.733C264.493 31.856 266.061 32.064 267.437 32.48C268.845 32.896 269.949 33.584 270.749 34.544C271.581 35.472 271.997 36.688 271.997 38.192C271.997 39.76 271.485 41.216 270.461 42.56C269.469 43.904 267.933 44.976 265.853 45.776C263.773 46.608 261.133 47.024 257.933 47.024ZM258.413 27.776C256.589 27.776 254.957 27.504 253.517 26.96C252.077 26.416 250.941 25.584 250.109 24.464C249.277 23.344 248.861 21.904 248.861 20.144C248.861 18.384 249.277 16.944 250.109 15.824C250.941 14.672 252.077 13.84 253.517 13.328C254.957 12.784 256.589 12.512 258.413 12.512C260.237 12.512 261.869 12.784 263.309 13.328C264.749 13.84 265.885 14.672 266.717 15.824C267.549 16.944 267.965 18.384 267.965 20.144C267.965 21.904 267.549 23.344 266.717 24.464C265.885 25.584 264.749 26.416 263.309 26.96C261.869 27.504 260.237 27.776 258.413 27.776ZM258.413 26.912C259.277 26.912 259.949 26.432 260.429 25.472C260.909 24.48 261.149 22.704 261.149 20.144C261.149 17.584 260.909 15.824 260.429 14.864C259.949 13.872 259.277 13.376 258.413 13.376C257.581 13.376 256.909 13.872 256.397 14.864C255.917 15.824 255.677 17.584 255.677 20.144C255.677 22.704 255.917 24.48 256.397 25.472C256.909 26.432 257.581 26.912 258.413 26.912ZM265.901 16.64L264.941 16.304C265.421 15.056 266.189 14.016 267.245 13.184C268.333 12.352 269.501 11.936 270.749 11.936C271.773 11.936 272.541 12.224 273.053 12.8C273.597 13.344 273.869 14.064 273.869 14.96C273.869 15.92 273.613 16.64 273.101 17.12C272.589 17.568 272.013 17.792 271.373 17.792C270.829 17.792 270.317 17.6 269.837 17.216C269.389 16.832 269.133 16.256 269.069 15.488C269.005 14.688 269.277 13.664 269.885 12.416L270.221 12.704C269.005 13.152 268.093 13.68 267.485 14.288C266.877 14.864 266.349 15.648 265.901 16.64Z" fill="#141414"/>
<path d="M299.056 12.656V32.768C299.056 34.208 299.28 35.28 299.728 35.984C300.176 36.656 300.976 36.992 302.128 36.992V38C301.136 37.904 300.144 37.856 299.152 37.856C297.808 37.856 296.56 37.904 295.408 38C294.256 38.096 293.168 38.272 292.144 38.528V34.208C291.376 35.808 290.304 36.96 288.928 37.664C287.584 38.336 286.08 38.672 284.416 38.672C283.072 38.672 281.984 38.496 281.152 38.144C280.32 37.792 279.664 37.344 279.184 36.8C278.64 36.192 278.256 35.392 278.032 34.4C277.808 33.408 277.696 32.128 277.696 30.56V18.416C277.696 16.976 277.472 15.92 277.024 15.248C276.608 14.544 275.808 14.192 274.624 14.192V13.184C275.648 13.28 276.64 13.328 277.6 13.328C278.944 13.328 280.192 13.28 281.344 13.184C282.528 13.056 283.616 12.88 284.608 12.656V32.528C284.608 33.328 284.672 34.032 284.8 34.64C284.96 35.248 285.248 35.728 285.664 36.08C286.08 36.4 286.688 36.56 287.488 36.56C288.352 36.56 289.12 36.32 289.792 35.84C290.496 35.36 291.056 34.704 291.472 33.872C291.92 33.008 292.144 32.048 292.144 30.992V18.416C292.144 16.976 291.92 15.92 291.472 15.248C291.056 14.544 290.256 14.192 289.072 14.192V13.184C290.096 13.28 291.088 13.328 292.048 13.328C293.392 13.328 294.64 13.28 295.792 13.184C296.976 13.056 298.064 12.88 299.056 12.656Z" fill="#141414"/>
<path d="M316.645 12.512C319.461 12.512 321.669 13.344 323.269 15.008C324.869 16.672 325.669 19.392 325.669 23.168H309.877L309.781 22.256H319.621C319.653 20.688 319.557 19.248 319.333 17.936C319.109 16.592 318.757 15.52 318.277 14.72C317.797 13.92 317.157 13.52 316.357 13.52C315.237 13.52 314.277 14.224 313.477 15.632C312.709 17.04 312.245 19.376 312.085 22.64L312.229 22.928C312.197 23.312 312.165 23.712 312.133 24.128C312.133 24.544 312.133 24.976 312.133 25.424C312.133 27.632 312.437 29.424 313.045 30.8C313.685 32.176 314.485 33.184 315.445 33.824C316.405 34.432 317.381 34.736 318.373 34.736C319.045 34.736 319.733 34.64 320.437 34.448C321.173 34.224 321.909 33.84 322.645 33.296C323.381 32.72 324.069 31.92 324.709 30.896L325.573 31.184C325.189 32.4 324.581 33.584 323.749 34.736C322.917 35.888 321.861 36.832 320.581 37.568C319.301 38.304 317.765 38.672 315.973 38.672C313.797 38.672 311.877 38.208 310.213 37.28C308.549 36.352 307.237 34.944 306.277 33.056C305.349 31.168 304.885 28.768 304.885 25.856C304.885 22.88 305.381 20.4 306.373 18.416C307.397 16.432 308.789 14.96 310.549 14C312.341 13.008 314.373 12.512 316.645 12.512Z" fill="#141414"/>
<path d="M337.953 12.512C339.297 12.512 340.465 12.688 341.457 13.04C342.481 13.36 343.217 13.68 343.665 14C344.753 14.736 345.425 14.256 345.681 12.56H346.689C346.625 13.456 346.577 14.56 346.545 15.872C346.513 17.152 346.497 18.864 346.497 21.008H345.489C345.329 19.824 345.025 18.656 344.577 17.504C344.129 16.352 343.473 15.408 342.609 14.672C341.777 13.936 340.689 13.568 339.345 13.568C338.417 13.568 337.633 13.84 336.993 14.384C336.353 14.896 336.033 15.648 336.033 16.64C336.033 17.6 336.321 18.448 336.897 19.184C337.473 19.888 338.209 20.576 339.105 21.248C340.033 21.888 340.993 22.576 341.985 23.312C343.041 24.112 344.001 24.912 344.865 25.712C345.729 26.48 346.417 27.328 346.929 28.256C347.441 29.184 347.697 30.288 347.697 31.568C347.697 33.008 347.281 34.272 346.449 35.36C345.617 36.416 344.513 37.232 343.137 37.808C341.793 38.384 340.289 38.672 338.625 38.672C337.665 38.672 336.801 38.576 336.033 38.384C335.297 38.192 334.657 37.952 334.113 37.664C333.697 37.472 333.297 37.296 332.913 37.136C332.561 36.944 332.225 36.784 331.905 36.656C331.585 36.56 331.297 36.672 331.041 36.992C330.817 37.312 330.641 37.76 330.513 38.336H329.505C329.569 37.312 329.617 36.064 329.649 34.592C329.681 33.12 329.697 31.168 329.697 28.736H330.705C330.897 30.464 331.249 32 331.761 33.344C332.273 34.656 332.961 35.696 333.825 36.464C334.721 37.2 335.841 37.568 337.185 37.568C337.729 37.568 338.257 37.456 338.769 37.232C339.281 37.008 339.697 36.64 340.017 36.128C340.369 35.616 340.545 34.96 340.545 34.16C340.545 32.752 340.081 31.584 339.153 30.656C338.257 29.728 337.105 28.72 335.697 27.632C334.673 26.8 333.697 25.984 332.769 25.184C331.873 24.352 331.137 23.456 330.561 22.496C329.985 21.504 329.697 20.384 329.697 19.136C329.697 17.696 330.081 16.48 330.849 15.488C331.617 14.496 332.625 13.76 333.873 13.28C335.153 12.768 336.513 12.512 337.953 12.512Z" fill="#141414"/>
</svg>
